<?xml version="1.0" encoding="UTF-8"?>
<svg version="1.1" viewBox="0 0 209.79 76.734" width="200px"  xmlns="http://www.w3.org/2000/svg">
 <style type="text/css">.st0{fill:#2DBCAF;}
	.st1{fill:#5DC9E1;}
	.st2{fill:#FDDD00;}
	.st3{fill:#CE3262;}
	.st4{fill:#00ACD7;}
	.st5{fill:#FFFFFF;}</style>
 <path d="m0 30.341 8.673 4.861-0.02998-2.778h44.33l-4.6655 5.172c-0.73458 0.57146-3.3177 0.29388-4.3063 0.31608-3.9996 0-11.305 0.0413-12.18 0.0433-0.59262-1.6387-1.8771-2.3126-3.7695-2.3126-2.3941 0-4.337 1.8855-4.337 4.2098 0 2.3254 1.9427 4.2102 4.337 4.2102 1.8924 0 3.2299-0.80049 3.8225-2.4378l16.218 0.10915c1.9417 0 2.6617-1.0869 3.3239-1.7082 0.66222-0.62124 5.4858-7.2991 5.4858-7.2991 1.1486-1.4092 2.0886-3.1966 1.0289-4.6769 0 0-6.2579-6.9602-6.9197-7.5818-0.66187-0.62159-1.7429-0.93018-3.2943-0.91456l-19.557 0.03198-0.05997-2.4325h-8.6753v8.4187h8.6753v-2.3089s14.593 0.0618 19.763 0.0618c0.98886 0.0221 1.701 0.0162 2.4353 0.58763l4.6667 4.9217-46.233-0.09-0.05997-3.2633z" fill="#00acd7" stroke-width=".17076"/>
 <g transform="translate(-20.297 -77.866)">
  <g id="CXHf1q_3_">
   <path class="st4" d="m153.1 99.3c-6.3 1.6-10.6 2.8-16.8 4.4-1.5 0.4-1.6 0.5-2.9-1-1.5-1.7-2.6-2.8-4.7-3.8-6.3-3.1-12.4-2.2-18.1 1.5-6.8 4.4-10.3 10.9-10.2 19 0.1 8 5.6 14.6 13.5 15.7 6.8 0.9 12.5-1.5 17-6.6 0.9-1.1 1.7-2.3 2.7-3.7h-19.3c-2.1 0-2.6-1.3-1.9-3 1.3-3.1 3.7-8.3 5.1-10.9 0.3-0.6 1-1.6 2.5-1.6h36.4c-0.2 2.7-0.2 5.4-0.6 8.1-1.1 7.2-3.8 13.8-8.2 19.6-7.2 9.5-16.6 15.4-28.5 17-9.8 1.3-18.9-0.6-26.9-6.6-7.4-5.6-11.6-13-12.7-22.2-1.3-10.9 1.9-20.7 8.5-29.3 7.1-9.3 16.5-15.2 28-17.3 9.4-1.7 18.4-0.6 26.5 4.9 5.3 3.5 9.1 8.3 11.6 14.1 0.6 0.9 0.2 1.4-1 1.7z" fill="#00acd7"/>
   <path class="st4" d="m186.2 154.6c-9.1-0.2-17.4-2.8-24.4-8.8-5.9-5.1-9.6-11.6-10.8-19.3-1.8-11.3 1.3-21.3 8.1-30.2 7.3-9.6 16.1-14.6 28-16.7 10.2-1.8 19.8-0.8 28.5 5.1 7.9 5.4 12.8 12.7 14.1 22.3 1.7 13.5-2.2 24.5-11.5 33.9-6.6 6.7-14.7 10.9-24 12.8-2.7 0.5-5.4 0.6-8 0.9zm23.8-40.4c-0.1-1.3-0.1-2.3-0.3-3.3-1.8-9.9-10.9-15.5-20.4-13.3-9.3 2.1-15.3 8-17.5 17.4-1.8 7.8 2 15.7 9.2 18.9 5.5 2.4 11 2.1 16.3-0.6 7.9-4.1 12.2-10.5 12.7-19.1z" fill="#00acd7"/>
  </g>
 </g>
</svg>
